<?xml version="1.0" standalone="no"?>
<!DOCTYPE svg PUBLIC "-//W3C//DTD SVG 20010904//EN"
 "http://www.w3.org/TR/2001/REC-SVG-20010904/DTD/svg10.dtd">
<svg version="1.0" xmlns="http://www.w3.org/2000/svg"
 width="856.000000pt" height="856.000000pt" viewBox="0 0 856.000000 856.000000"
 preserveAspectRatio="xMidYMid meet">
<metadata>
Created by potrace 1.11, written by Peter Selinger 2001-2013
</metadata>
<g transform="translate(0.000000,856.000000) scale(0.100000,-0.100000)"
fill="#000000" stroke="none">
<path d="M4028 7625 c-2 -2 -41 -6 -88 -10 -47 -4 -98 -9 -115 -11 -16 -2 -59
-6 -95 -10 -36 -3 -68 -8 -71 -10 -3 -1 -28 -6 -55 -10 -27 -3 -58 -8 -69 -10
-11 -2 -36 -7 -55 -10 -39 -7 -61 -12 -87 -18 -80 -19 -103 -23 -108 -18 -3 3
-5 -1 -5 -8 0 -7 -2 -11 -5 -8 -4 3 -54 -8 -113 -24 -59 -16 -120 -33 -137
-37 -43 -12 -245 -81 -280 -97 -16 -7 -53 -22 -81 -33 -97 -37 -452 -206 -464
-221 -3 -3 -16 -11 -30 -18 -14 -7 -38 -21 -55 -32 -16 -11 -37 -23 -45 -27
-31 -14 -185 -116 -188 -124 -2 -5 -8 -9 -13 -9 -9 0 -68 -38 -79 -51 -3 -3
-30 -23 -60 -43 -30 -21 -57 -41 -60 -44 -3 -4 -50 -43 -104 -87 -199 -159
-450 -411 -589 -588 -23 -28 -44 -54 -48 -57 -3 -3 -44 -57 -91 -120 -98 -133
-198 -285 -281 -430 -43 -75 -157 -304 -157 -316 0 -7 -5 -14 -11 -16 -5 -2
-11 -10 -13 -18 -3 -15 -9 -30 -46 -115 -23 -53 -29 -68 -78 -205 -52 -145
-125 -395 -148 -510 -3 -14 -12 -59 -21 -100 -8 -41 -17 -91 -19 -110 -3 -19
-7 -44 -11 -55 -3 -11 -7 -36 -9 -55 -2 -19 -5 -48 -8 -65 -3 -16 -7 -57 -10
-90 -3 -33 -9 -96 -13 -140 -15 -157 -8 -607 11 -765 3 -19 7 -60 11 -90 11
-90 14 -111 31 -200 8 -47 18 -99 20 -115 3 -17 21 -91 40 -165 19 -74 36
-144 39 -155 14 -58 110 -344 135 -400 5 -11 21 -49 35 -85 15 -36 35 -82 46
-102 10 -21 15 -38 11 -38 -4 0 -2 -4 3 -8 6 -4 30 -47 53 -97 55 -114 169
-315 239 -422 96 -146 109 -142 234 65 52 85 96 160 98 166 2 6 8 15 13 21 16
19 108 178 108 187 0 4 4 8 9 8 5 0 13 10 17 22 3 12 23 47 43 77 19 31 41 65
47 76 6 11 21 36 32 55 12 19 25 42 28 50 4 8 13 22 19 30 7 8 21 31 32 50 26
50 136 234 143 240 3 3 17 26 30 52 27 51 43 64 58 45 9 -12 135 -257 137
-267 1 -3 48 -97 105 -210 58 -113 107 -212 110 -220 3 -8 36 -75 73 -147 73
-145 98 -171 141 -152 14 7 26 15 26 19 0 3 8 15 18 26 10 10 28 35 42 54 13
19 37 51 52 70 16 19 32 40 36 45 36 50 422 567 442 591 14 17 33 42 42 55 19
27 209 283 234 314 8 11 35 47 60 80 25 33 50 67 57 75 7 8 30 40 52 70 22 30
44 60 50 66 5 6 41 55 80 108 38 53 73 96 77 96 4 0 8 6 8 13 0 7 10 23 23 37
13 14 37 46 55 72 18 25 38 52 45 60 7 7 50 65 97 128 46 63 88 120 93 125 5
6 53 71 109 145 55 74 107 144 116 155 10 11 24 31 33 45 9 14 28 39 43 55 14
17 26 33 26 37 0 4 6 13 13 20 11 12 60 76 102 134 11 15 37 49 59 76 37 47
39 48 58 32 10 -10 32 -40 49 -68 16 -28 35 -60 42 -70 87 -139 147 -238 147
-245 0 -5 6 -14 14 -20 8 -7 22 -26 31 -44 9 -18 40 -70 69 -117 30 -47 80
-128 112 -180 31 -52 60 -97 63 -100 4 -3 15 -22 26 -42 11 -21 22 -38 26 -38
4 0 9 -9 12 -20 8 -31 54 -44 97 -26 39 16 193 66 204 66 4 0 48 -39 98 -87
50 -49 122 -118 159 -154 38 -37 69 -69 69 -73 0 -3 17 -32 37 -63 21 -32 43
-67 49 -78 6 -11 31 -54 56 -95 26 -41 106 -174 178 -295 73 -121 146 -241
162 -268 28 -44 49 -57 89 -55 13 1 473 673 488 712 2 6 7 13 10 16 4 3 28 38
55 78 27 39 53 72 60 71 6 0 88 -103 181 -230 94 -126 178 -239 187 -252 70
-92 139 -184 146 -192 4 -5 25 -35 47 -65 22 -30 42 -57 45 -60 3 -3 30 -39
60 -80 30 -41 59 -80 65 -87 5 -7 16 -19 23 -27 6 -8 12 -19 12 -25 0 -5 4
-11 8 -13 4 -2 50 -59 101 -128 51 -69 101 -136 112 -150 29 -36 71 -93 94
-124 59 -81 108 -142 121 -149 30 -17 70 2 90 43 11 22 22 40 27 40 4 0 7 9 7
19 0 11 3 21 8 23 14 6 147 285 144 301 -1 4 2 7 8 7 5 0 10 7 10 15 0 8 4 23
9 33 15 28 39 86 43 102 2 8 5 17 8 20 7 7 87 239 110 320 32 112 49 174 54
200 3 14 13 54 22 90 9 36 17 72 18 80 1 8 5 31 9 50 9 45 16 86 22 130 3 19
8 49 10 65 3 17 7 50 10 75 3 25 8 59 10 75 27 177 27 700 1 914 -3 24 -8 63
-11 87 -8 71 -15 115 -31 204 -9 47 -18 99 -21 115 -6 38 -62 265 -70 285 -3
8 -7 20 -7 25 -5 34 -81 270 -96 297 -6 10 -10 23 -10 28 0 45 -227 525 -319
675 -24 39 -52 85 -62 102 -17 30 -78 124 -96 148 -51 67 -63 85 -63 93 0 6
-4 12 -8 14 -4 2 -37 41 -72 88 -36 47 -69 90 -75 96 -5 6 -30 35 -55 64 -148
175 -348 373 -515 512 -23 18 -47 38 -55 45 -24 20 -82 66 -125 99 -63 49
-323 223 -374 250 -25 14 -73 41 -106 60 -72 42 -400 203 -425 208 -5 1 -108
42 -155 61 -33 14 -211 76 -229 80 -6 1 -18 4 -26 7 -8 3 -33 11 -55 16 -22 6
-51 15 -65 19 -14 4 -30 8 -37 9 -6 1 -27 7 -45 13 -36 11 -300 66 -363 75
-22 3 -57 9 -78 12 -61 10 -88 13 -167 19 -41 4 -86 9 -100 12 -26 5 -586 13
-592 8z"/>
</g>
</svg>
